<?xml version="1.0" encoding="utf-8"?>
<!-- Generator: Adobe Illustrator 24.2.3, SVG Export Plug-In . SVG Version: 6.00 Build 0)  -->
<svg version="1.1" id="Layer_1" xmlns="http://www.w3.org/2000/svg" xmlns:xlink="http://www.w3.org/1999/xlink" x="0px" y="0px"
	 viewBox="0 0 250 70" style="enable-background:new 0 0 250 70;" xml:space="preserve">
<style type="text/css">
	.st0{fill:#E5E5E5;}
	.st1{fill:#FFFFFF;}
</style>
<g>
	<path class="st0" d="M229.5,58h-215c-1.93,0-3.5-1.57-3.5-3.5v-48C11,4.57,12.57,3,14.5,3h215c1.93,0,3.5,1.57,3.5,3.5v48
		C233,56.43,231.43,58,229.5,58z"/>
</g>
<line class="st1" x1="22" y1="57" x2="22" y2="67"/>
<g>
	<path class="st1" d="M34,58l-12,9L34,58z"/>
</g>
<polygon class="st0" points="38.99,43.25 36.35,51.74 42.73,57.93 32.82,58.96 27.56,66.62 24.08,58.77 14.46,57.31 22.21,51.43 
	21.52,42.87 29.8,47.08 "/>
</svg>
