<?xml version="1.0" encoding="utf-8"?>
<!-- Generator: Adobe Illustrator 24.2.3, SVG Export Plug-In . SVG Version: 6.00 Build 0)  -->
<svg version="1.1" id="Layer_1" xmlns="http://www.w3.org/2000/svg" xmlns:xlink="http://www.w3.org/1999/xlink" x="0px" y="0px"
	 viewBox="0 0 32 32" style="enable-background:new 0 0 32 32;" xml:space="preserve">
<style type="text/css">
	.st0{fill:#FFFFFF;}
	.st1{fill:none;stroke:#000000;stroke-miterlimit:10;}
</style>
<g>
	<path d="M25.5,26h-24C0.7,26,0,25.3,0,24.5v-15C0,8.7,0.7,8,1.5,8h24C26.3,8,27,8.7,27,9.5v15C27,25.3,26.3,26,25.5,26z"/>
</g>
<g>
	<path class="st0" d="M13,14c-0.9-1.7-2.7-2.4-4-2c-1.7,0.5-2.1,2.9-2,4c0.1,2.6,2.5,4.9,6,6"/>
	<path class="st0" d="M13.1,13.9c1-1.6,2.7-2.4,4-2c1.7,0.6,2,2.9,2,4c-0.1,2.6-2.5,4.9-6,6"/>
</g>
<path class="st1" d="M1.5,6.5h24c0.3,0,1.2,0.2,2,1c0.2,0.2,0.8,0.9,1,2"/>
<line class="st1" x1="28.5" y1="9.5" x2="28.5" y2="25.5"/>
<path class="st1" d="M3.5,4.5h24c0.3,0,1.2,0.2,2,1.2c0.2,0.2,0.8,1,1,2.3"/>
<line class="st1" x1="30.4" y1="7.3" x2="30.5" y2="25.5"/>
</svg>
