<?xml version="1.0" encoding="utf-8"?>
<!-- Generator: Adobe Illustrator 24.2.3, SVG Export Plug-In . SVG Version: 6.00 Build 0)  -->
<svg version="1.1" id="Layer_1" xmlns="http://www.w3.org/2000/svg" xmlns:xlink="http://www.w3.org/1999/xlink" x="0px" y="0px"
	 viewBox="0 0 32 32" style="enable-background:new 0 0 32 32;" xml:space="preserve">
<style type="text/css">
	.st0{fill:#1EA2F1;}
	.st1{fill:#FFFFFF;}
</style>
<g>
	<path class="st0" d="M30.4,32H1.6C0.7,32,0,31.3,0,30.4V1.6C0,0.7,0.7,0,1.6,0h28.8C31.3,0,32,0.7,32,1.6v28.8
		C32,31.3,31.3,32,30.4,32z"/>
</g>
<g id="XMLID_1_">
	<g>
		<path class="st1" d="M6.7,15.5c0.4,0.1,0.9,0.1,0.9,0.1c0.4,0,0.6,0,0.8,0c0.7-0.1,1-0.4,1.3-0.4c0,0,0,0,0,0
			c0-0.1-2.3-0.4-3.7-1.8c-2-2-1.6-5.9-0.9-6.1c0.3-0.1,0.6,0.8,1.8,1.7c0.5,0.4,1.2,0.8,3.1,1.4c2.1,0.6,6.2,1.5,6.7,0.4
			c0.1-0.2,0-0.4,0.1-1.4C17,9.1,17,9,17.1,8.5c0.2-0.9,0.1-0.9,0.2-1.2c0.2-0.7,0.8-1.2,1-1.3c0.4-0.3,0.8-0.5,1.4-0.7
			c0.6-0.2,1-0.3,1.7-0.3c0.6,0,1.2,0.3,1.3,0.3c0.2,0.1,0.4,0.2,0.8,0.4c0.4,0.2,0.6,0.3,0.7,0.4c0.5,0.5,0.3,0.9,0.7,1.2
			c0.1,0.1,0.3,0.2,1.5-0.1c1-0.2,1.3-0.3,1.4-0.2c0.1,0.2-0.3,0.6-0.6,0.9c-0.4,0.3-0.7,0.4-1.1,0.5C25.4,8.8,25,8.7,25,8.8
			c0,0.1,0.7,0.5,1.4,0.4c0.4,0,0.6-0.1,0.7-0.1c0.1,0.1-0.4,0.6-0.8,0.8c-0.3,0.2-0.6,0.2-0.8,0.3c0.2,0.8,0.5,1.9,0.6,3.3
			c0,0.1,0.1,1.4-0.2,2.7c-0.5,2.5-2.1,4.9-3.3,6.2c-5.2,5.4-16.1,4-16.1,3.7c0-0.1,1.6-0.2,3.7-1.4c1.4-0.8,2.5-2,2.3-2.4
			c-0.1-0.3-0.6-0.1-2.1-0.6c-0.1,0-0.3-0.1-0.6-0.2C8.5,21,7.4,20,7.5,19.9c0.1-0.1,1.7,1,3.3,0.5c0.5-0.2,1-0.5,1-0.7
			c-0.1-0.4-1.4-0.2-3.2-0.8c-0.6-0.2-1.4-0.5-2.2-1.2c-1.2-1-1.7-2.4-1.5-2.6C5.1,14.8,5.6,15.3,6.7,15.5z"/>
	</g>
	<g>
	</g>
</g>
</svg>
