<?xml version="1.0" encoding="utf-8"?>
<!-- Generator: Adobe Illustrator 24.2.3, SVG Export Plug-In . SVG Version: 6.00 Build 0)  -->
<svg version="1.1" id="Layer_1" xmlns="http://www.w3.org/2000/svg" xmlns:xlink="http://www.w3.org/1999/xlink" x="0px" y="0px"
	 viewBox="0 0 32 32" style="enable-background:new 0 0 32 32;" xml:space="preserve">
<style type="text/css">
	.st0{fill:#FFFFFF;stroke:#FFFFFF;stroke-miterlimit:10;}
	.st1{fill:none;stroke:#FFFFFF;stroke-miterlimit:10;}
	.st2{fill:#FFFFFF;}
</style>
<path d="M29.27,27H3.73C2.78,27,2,26.22,2,25.27V8.73C2,7.78,2.78,7,3.73,7h25.53C30.22,7,31,7.78,31,8.73v16.53
	C31,26.22,30.22,27,29.27,27z"/>
<path d="M15.09,9H2.91C2.41,9,2,8.59,2,8.09V4.91C2,4.41,2.41,4,2.91,4h12.18C15.59,4,16,4.41,16,4.91v3.18C16,8.59,15.59,9,15.09,9
	z"/>
<g>
	<rect x="8.19" y="11" class="st0" width="10.81" height="0"/>
	<line class="st1" x1="4.75" y1="11" x2="6.72" y2="11"/>
</g>
<g>
	<rect x="8.19" y="14" class="st0" width="10.81" height="0"/>
	<line class="st1" x1="4.75" y1="14" x2="6.72" y2="14"/>
</g>
<g>
	<rect x="7.47" y="17" class="st0" width="8.53" height="0"/>
	<line class="st1" x1="4.75" y1="17" x2="6.3" y2="17"/>
</g>
<path class="st2" d="M22,22.5L22,22.5c-0.5,0-0.91-0.41-0.91-0.91v-8.18c0-0.5,0.41-0.91,0.91-0.91h0c0.5,0,0.91,0.41,0.91,0.91
	v8.18C22.91,22.09,22.5,22.5,22,22.5z"/>
<path class="st2" d="M17,17.09L17,17.09c0-0.45,0.37-0.82,0.82-0.82h8.36c0.45,0,0.82,0.37,0.82,0.82v0c0,0.45-0.37,0.82-0.82,0.82
	h-8.36C17.37,17.91,17,17.54,17,17.09z"/>
</svg>
