<?xml version="1.0" encoding="utf-8"?>
<!-- Generator: Adobe Illustrator 24.3.0, SVG Export Plug-In . SVG Version: 6.00 Build 0)  -->
<svg version="1.1" id="Layer_1" xmlns="http://www.w3.org/2000/svg" xmlns:xlink="http://www.w3.org/1999/xlink" x="0px" y="0px"
	 viewBox="0 0 32 32" style="enable-background:new 0 0 32 32;" xml:space="preserve">
<style type="text/css">
	.st0{fill:#E6E6E6;}
	.st1{fill:none;stroke:#E6E6E6;stroke-miterlimit:10;}
	.st2{fill:#FFFFFF;}
</style>
<g>
	<path class="st0" d="M0.7,7c0,0,0.1,0,0.1,0h30.4C31.6,7,32,7.4,32,7.8v19.4c0,0.4-0.4,0.8-0.8,0.8H0.8C0.4,28,0,27.6,0,27.2V7.8
		C0,7.4,0.3,7.1,0.7,7"/>
</g>
<line class="st1" x1="9.5" y1="1.5" x2="15" y2="8"/>
<line class="st1" x1="22.5" y1="1.5" x2="16.6" y2="7.9"/>
<g>
	<path class="st2" d="M16,24c-5.5-4.2-8.4-8.6-6.9-11c0.4-0.7,1.7-2,3.5-2c2.1,0,3.4,1.9,3.5,2"/>
	<path class="st2" d="M15.9,24c5.5-4.2,8.4-8.5,7-11c-0.4-0.7-1.7-2-3.5-2c-2.1,0-3.4,1.8-3.5,2"/>
</g>
<path class="st0" d="M10,28c0,0.9,0.4,1.7,1,2c0.1,0,0.6,0.3,1,0c0.4-0.3,0.5-1.1,0-2"/>
<path class="st0" d="M23.1,27.8c0.1,0.9-0.2,1.7-0.8,2.1c-0.1,0-0.6,0.3-1,0.1c-0.4-0.3-0.6-1.1-0.2-2"/>
</svg>
