<?xml version="1.0" encoding="utf-8"?>
<!-- Generator: Adobe Illustrator 24.2.3, SVG Export Plug-In . SVG Version: 6.00 Build 0)  -->
<svg version="1.1" id="Layer_1" xmlns="http://www.w3.org/2000/svg" xmlns:xlink="http://www.w3.org/1999/xlink" x="0px" y="0px"
	 viewBox="0 0 32 32" style="enable-background:new 0 0 32 32;" xml:space="preserve">
<style type="text/css">
	.st0{fill:#FFFFFF;}
	.st1{fill:none;stroke:#000000;stroke-width:2;stroke-miterlimit:10;}
	.st2{fill-rule:evenodd;clip-rule:evenodd;fill:#FF84C8;stroke:#000000;stroke-width:2;stroke-miterlimit:10;}
</style>
<g>
	<rect x="2" y="7" class="st0" width="28" height="20"/>
	<path d="M29,8v18H3V8H29 M31,6H1v22h30V6L31,6z"/>
</g>
<g>
	<line class="st1" x1="1.5" y1="6.5" x2="15.5" y2="17.5"/>
</g>
<g>
	<line class="st1" x1="30.5" y1="6.5" x2="17.5" y2="17.5"/>
</g>
<path class="st2" d="M16,14c-0.9-1.1-2.1-1.4-3-1c-1.3,0.6-1,2.7-1,3c0.4,2.7,3.8,3.9,4,4"/>
<path class="st2" d="M16,14c0.9-1,2.1-1.4,3-1c1.3,0.6,1,2.7,1,3c-0.4,2.7-3.8,3.9-4,4"/>
</svg>
