<?xml version="1.0" encoding="utf-8"?>
<!-- Generator: Adobe Illustrator 24.2.3, SVG Export Plug-In . SVG Version: 6.00 Build 0)  -->
<svg version="1.1" id="Layer_1" xmlns="http://www.w3.org/2000/svg" xmlns:xlink="http://www.w3.org/1999/xlink" x="0px" y="0px"
	 viewBox="0 0 32 32" style="enable-background:new 0 0 32 32;" xml:space="preserve">
<style type="text/css">
	.st0{fill:none;stroke:#000000;stroke-miterlimit:10;}
	.st1{stroke:#000000;stroke-miterlimit:10;}
	.st2{fill:none;stroke:#FFFFFF;stroke-miterlimit:10;}
</style>
<g>
	<rect y="5" width="21" height="25"/>
</g>
<g>
	<g>
		<g>
			<polygon points="22.4,10.6 23,11.2 28.5,5.5 27.9,5 			"/>
			<polygon points="25.9,13.8 26.5,14.3 32,8.7 31.4,8.2 			"/>
			<line class="st0" x1="27.6" y1="5.3" x2="31.1" y2="8.4"/>
		</g>
		<line class="st1" x1="22.4" y1="10.6" x2="26.5" y2="14.3"/>
	</g>
	<line class="st0" x1="22.7" y1="10.9" x2="22.5" y2="14.4"/>
	<line class="st0" x1="26.2" y1="14.1" x2="22.5" y2="14.4"/>
	<line class="st0" x1="22" y1="15" x2="22.5" y2="14.4"/>
</g>
<line class="st2" x1="2" y1="9.5" x2="18" y2="9.5"/>
<line class="st2" x1="2" y1="13" x2="18" y2="13"/>
<line class="st2" x1="2" y1="17" x2="18" y2="17"/>
<line class="st2" x1="2" y1="21" x2="18" y2="21"/>
<line class="st2" x1="2" y1="25.2" x2="18" y2="25.2"/>
</svg>
